<svg class="main-svg" xmlns="http://www.w3.org/2000/svg" xmlns:xlink="http://www.w3.org/1999/xlink" width="700" height="500" style="" viewBox="0 0 700 500"><rect x="0" y="0" width="700" height="500" style="fill: rgb(255, 255, 255); fill-opacity: 1;"/><defs id="defs-80ed7b"><g class="clips"><clipPath id="clip80ed7bpolar-for-traces"><path d="M124.875,0A124.875,124.875 0,1,0 -124.875,-1.5292776904352574e-14A124.875,124.875 0,1,0 124.875,3.058555380870515e-14Z" transform="translate(124.875,124.875)"/></clipPath><clipPath id="clip80ed7bpolar2-for-traces"><path d="M124.875,0A124.875,124.875 0,1,0 -124.875,-1.5292776904352574e-14A124.875,124.875 0,1,0 124.875,3.058555380870515e-14Z" transform="translate(124.875,124.875)"/></clipPath></g><g class="gradients"/><g class="patterns"/></defs><g class="bglayer"/><g class="layer-below"><g class="imagelayer"/><g class="shapelayer"/></g><g class="cartesianlayer"/><g class="polarlayer"><g class="polar"><g class="polarsublayer draglayer"/><g class="polarsublayer plotbg"><path d="M124.875,0A124.875,124.875 0,1,0 -124.875,-1.5292776904352574e-14A124.875,124.875 0,1,0 124.875,3.058555380870515e-14Z" transform="translate(204.875,247)" style="fill: rgb(229, 236, 246); fill-opacity: 1;"/></g><g class="polarsublayer backplot"><g class="maplayer"/></g><g class="polarsublayer angular-grid" style="fill: none;"><path class="angularaxisgrid" d="M204.875,247L293.17495930067014,335.29995930067014" style="stroke: rgb(255, 255, 255); stroke-opacity: 1; stroke-width: 1px;"/><path class="angularaxisgrid" d="M204.875,247L293.17495930067014,158.7000406993299" style="stroke: rgb(255, 255, 255); stroke-opacity: 1; stroke-width: 1px;"/><path class="angularaxisgrid" d="M204.875,247L116.57504069932989,158.70004069932986" style="stroke: rgb(255, 255, 255); stroke-opacity: 1; stroke-width: 1px;"/><path class="angularaxisgrid" d="M204.875,247L116.57504069932986,335.29995930067014" style="stroke: rgb(255, 255, 255); stroke-opacity: 1; stroke-width: 1px;"/></g><g class="polarsublayer radial-grid" transform="translate(204.875,247)" style="fill: none;"><path class="xgrid" d="M39.3,0A39.3,39.3 0,1,0 -39.3,-4.812861920649098e-15A39.3,39.3 0,1,0 39.3,9.625723841298196e-15Z" style="stroke: rgb(255, 255, 255); stroke-opacity: 1; stroke-width: 1px;"/><path class="xgrid" d="M78.6,0A78.6,78.6 0,1,0 -78.6,-9.625723841298196e-15A78.6,78.6 0,1,0 78.6,1.9251447682596392e-14Z" style="stroke: rgb(255, 255, 255); stroke-opacity: 1; stroke-width: 1px;"/><path class="xgrid" d="M117.9,0A117.9,117.9 0,1,0 -117.9,-1.4438585761947295e-14A117.9,117.9 0,1,0 117.9,2.887717152389459e-14Z" style="stroke: rgb(255, 255, 255); stroke-opacity: 1; stroke-width: 1px;"/></g><g class="polarsublayer frontplot" transform="translate(80,122.125)"><g class="barlayer"/><g class="scatterlayer"><g class="trace scatter trace017e04" style="stroke-miterlimit: 2; opacity: 1;"><g class="fills" clip-path="url(#clip80ed7bpolar-for-traces)"/><g class="errorbars"/><g class="lines"><path class="js-line" d="M201.48,201.48L209.15,40.6L44.91,44.91L39.23,210.52L201.48,201.48" clip-path="url(#clip80ed7bpolar-for-traces)" style="vector-effect: non-scaling-stroke; fill: none; stroke: rgb(0, 128, 0); stroke-opacity: 1; stroke-width: 2px; opacity: 1;"/></g><g class="points"><path class="point" transform="translate(201.48,201.48)" d="M3,0A3,3 0 1,1 0,-3A3,3 0 0,1 3,0Z" style="opacity: 1; stroke-width: 0px; fill: rgb(0, 128, 0); fill-opacity: 1;"/><path class="point" transform="translate(209.15,40.6)" d="M3,0A3,3 0 1,1 0,-3A3,3 0 0,1 3,0Z" style="opacity: 1; stroke-width: 0px; fill: rgb(0, 128, 0); fill-opacity: 1;"/><path class="point" transform="translate(44.91,44.91)" d="M3,0A3,3 0 1,1 0,-3A3,3 0 0,1 3,0Z" style="opacity: 1; stroke-width: 0px; fill: rgb(0, 128, 0); fill-opacity: 1;"/><path class="point" transform="translate(39.23,210.52)" d="M3,0A3,3 0 1,1 0,-3A3,3 0 0,1 3,0Z" style="opacity: 1; stroke-width: 0px; fill: rgb(0, 128, 0); fill-opacity: 1;"/><path class="point" transform="translate(201.48,201.48)" d="M3,0A3,3 0 1,1 0,-3A3,3 0 0,1 3,0Z" style="opacity: 1; stroke-width: 0px; fill: rgb(0, 128, 0); fill-opacity: 1;"/></g><g class="text"/></g><g class="trace scatter trace5843ec" style="stroke-miterlimit: 2; opacity: 1;"><g class="fills" clip-path="url(#clip80ed7bpolar-for-traces)"/><g class="errorbars"/><g class="lines"><path class="js-line" d="M201.22,201.22L197.81,51.94L56.25,56.25L47.04,202.71L201.22,201.22" clip-path="url(#clip80ed7bpolar-for-traces)" style="vector-effect: non-scaling-stroke; fill: none; stroke: rgb(0, 0, 255); stroke-opacity: 1; stroke-width: 2px; opacity: 1;"/></g><g class="points"><path class="point" transform="translate(201.22,201.22)" d="M3,0A3,3 0 1,1 0,-3A3,3 0 0,1 3,0Z" style="opacity: 1; stroke-width: 0px; fill: rgb(0, 0, 255); fill-opacity: 1;"/><path class="point" transform="translate(197.81,51.94)" d="M3,0A3,3 0 1,1 0,-3A3,3 0 0,1 3,0Z" style="opacity: 1; stroke-width: 0px; fill: rgb(0, 0, 255); fill-opacity: 1;"/><path class="point" transform="translate(56.25,56.25)" d="M3,0A3,3 0 1,1 0,-3A3,3 0 0,1 3,0Z" style="opacity: 1; stroke-width: 0px; fill: rgb(0, 0, 255); fill-opacity: 1;"/><path class="point" transform="translate(47.04,202.71)" d="M3,0A3,3 0 1,1 0,-3A3,3 0 0,1 3,0Z" style="opacity: 1; stroke-width: 0px; fill: rgb(0, 0, 255); fill-opacity: 1;"/><path class="point" transform="translate(201.22,201.22)" d="M3,0A3,3 0 1,1 0,-3A3,3 0 0,1 3,0Z" style="opacity: 1; stroke-width: 0px; fill: rgb(0, 0, 255); fill-opacity: 1;"/></g><g class="text"/></g><g class="trace scatter traceac456d" style="stroke-miterlimit: 2; opacity: 1;"><g class="fills" clip-path="url(#clip80ed7bpolar-for-traces)"/><g class="errorbars"/><g class="lines"><path class="js-line" d="M190.18,190.18L189.87,59.88L65.59,65.59L64.05,185.7L190.18,190.18" clip-path="url(#clip80ed7bpolar-for-traces)" style="vector-effect: non-scaling-stroke; fill: none; stroke: rgb(255, 0, 0); stroke-opacity: 1; stroke-width: 2px; opacity: 1;"/></g><g class="points"><path class="point" transform="translate(190.18,190.18)" d="M3,0A3,3 0 1,1 0,-3A3,3 0 0,1 3,0Z" style="opacity: 1; stroke-width: 0px; fill: rgb(255, 0, 0); fill-opacity: 1;"/><path class="point" transform="translate(189.87,59.88)" d="M3,0A3,3 0 1,1 0,-3A3,3 0 0,1 3,0Z" style="opacity: 1; stroke-width: 0px; fill: rgb(255, 0, 0); fill-opacity: 1;"/><path class="point" transform="translate(65.59,65.59)" d="M3,0A3,3 0 1,1 0,-3A3,3 0 0,1 3,0Z" style="opacity: 1; stroke-width: 0px; fill: rgb(255, 0, 0); fill-opacity: 1;"/><path class="point" transform="translate(64.05,185.7)" d="M3,0A3,3 0 1,1 0,-3A3,3 0 0,1 3,0Z" style="opacity: 1; stroke-width: 0px; fill: rgb(255, 0, 0); fill-opacity: 1;"/><path class="point" transform="translate(190.18,190.18)" d="M3,0A3,3 0 1,1 0,-3A3,3 0 0,1 3,0Z" style="opacity: 1; stroke-width: 0px; fill: rgb(255, 0, 0); fill-opacity: 1;"/></g><g class="text"/></g></g></g><g class="polarsublayer angular-line"><path d="M124.875,0A124.875,124.875 0,1,0 -124.875,-1.5292776904352574e-14A124.875,124.875 0,1,0 124.875,3.058555380870515e-14Z" transform="translate(204.875,247)" stroke-width="1" style="fill: none; stroke: rgb(255, 255, 255); stroke-opacity: 1;"/></g><g class="polarsublayer radial-line"><line x1="0" y1="0" x2="124.875" y2="0" transform="translate(204.875,247)" stroke-width="1" style="fill: none; stroke: rgb(255, 255, 255); stroke-opacity: 1;"/></g><g class="polarsublayer angular-axis"><g class="angularaxistick"><text text-anchor="start" x="4.59619407771256" y="33.23401871576773" transform="translate(293.17495930067014,335.29995930067014)" style="font-family: 'Open Sans', verdana, arial, sans-serif; font-size: 30px; fill: rgb(42, 63, 95); fill-opacity: 1; white-space: pre; opacity: 1;">Eversion</text></g><g class="angularaxistick"><text text-anchor="start" x="4.59619407771256" y="-1.4142135623730931" transform="translate(293.17495930067014,158.7000406993299)" style="font-family: 'Open Sans', verdana, arial, sans-serif; font-size: 30px; fill: rgb(42, 63, 95); fill-opacity: 1; white-space: pre; opacity: 1;">Plantarflexion</text></g><g class="angularaxistick"><text text-anchor="end" x="-4.596194077712559" y="-1.4142135623730958" transform="translate(116.57504069932989,158.70004069932986)" style="font-family: 'Open Sans', verdana, arial, sans-serif; font-size: 30px; fill: rgb(42, 63, 95); fill-opacity: 1; white-space: pre; opacity: 1;">Inversion</text></g><g class="angularaxistick"><text text-anchor="end" x="-4.59619407771256" y="33.23401871576773" transform="translate(116.57504069932986,335.29995930067014)" style="font-family: 'Open Sans', verdana, arial, sans-serif; font-size: 30px; fill: rgb(42, 63, 95); fill-opacity: 1; white-space: pre; opacity: 1;">Dorsiflexion</text></g></g><g class="polarsublayer radial-axis" transform="translate(204.875,247)"><g class="xtick"><text text-anchor="start" x="0" y="36.5" transform="translate(39.3,0) rotate(90,0,21.5)" style="font-family: 'Open Sans', verdana, arial, sans-serif; font-size: 30px; fill: rgb(42, 63, 95); fill-opacity: 1; white-space: pre; opacity: 1;">500</text></g><g class="xtick"><text text-anchor="start" x="0" y="36.5" transform="translate(78.6,0) rotate(90,0,21.5)" style="font-family: 'Open Sans', verdana, arial, sans-serif; font-size: 30px; fill: rgb(42, 63, 95); fill-opacity: 1; white-space: pre; opacity: 1;">1000</text></g><g class="xtick"><text text-anchor="start" x="0" y="36.5" transform="translate(117.9,0) rotate(90,0,21.5)" style="font-family: 'Open Sans', verdana, arial, sans-serif; font-size: 30px; fill: rgb(42, 63, 95); fill-opacity: 1; white-space: pre; opacity: 1;">1500</text></g></g></g><g class="polar2"><g class="polarsublayer draglayer"/><g class="polarsublayer plotbg"><path d="M124.875,0A124.875,124.875 0,1,0 -124.875,-1.5292776904352574e-14A124.875,124.875 0,1,0 124.875,3.058555380870515e-14Z" transform="translate(495.125,247)" style="fill: rgb(229, 236, 246); fill-opacity: 1;"/></g><g class="polarsublayer backplot"><g class="maplayer"/></g><g class="polarsublayer angular-grid" style="fill: none;"><path class="angularaxisgrid" d="M495.125,247L583.4249593006701,335.29995930067014" style="stroke: rgb(255, 255, 255); stroke-opacity: 1; stroke-width: 1px;"/><path class="angularaxisgrid" d="M495.125,247L583.4249593006701,158.7000406993299" style="stroke: rgb(255, 255, 255); stroke-opacity: 1; stroke-width: 1px;"/><path class="angularaxisgrid" d="M495.125,247L406.82504069932986,158.70004069932986" style="stroke: rgb(255, 255, 255); stroke-opacity: 1; stroke-width: 1px;"/><path class="angularaxisgrid" d="M495.125,247L406.82504069932986,335.29995930067014" style="stroke: rgb(255, 255, 255); stroke-opacity: 1; stroke-width: 1px;"/></g><g class="polarsublayer radial-grid" transform="translate(495.125,247)" style="fill: none;"><path class="xgrid" d="M53.95,0A53.95,53.95 0,1,0 -53.95,-6.606969481399971e-15A53.95,53.95 0,1,0 53.95,1.3213938962799942e-14Z" style="stroke: rgb(255, 255, 255); stroke-opacity: 1; stroke-width: 1px;"/><path class="xgrid" d="M107.89,0A107.89,107.89 0,1,0 -107.89,-1.3212714316000794e-14A107.89,107.89 0,1,0 107.89,2.6425428632001588e-14Z" style="stroke: rgb(255, 255, 255); stroke-opacity: 1; stroke-width: 1px;"/></g><g class="polarsublayer frontplot" transform="translate(370.25,122.125)"><g class="barlayer"/><g class="scatterlayer"><g class="trace scatter trace87b1ba" style="stroke-miterlimit: 2; opacity: 1;"><g class="fills" clip-path="url(#clip80ed7bpolar2-for-traces)"/><g class="errorbars"/><g class="lines"><path class="js-line" d="M202.39,202.39L167.8,81.95L57.59,57.59L73.96,175.79L202.39,202.39" clip-path="url(#clip80ed7bpolar2-for-traces)" style="vector-effect: non-scaling-stroke; fill: none; stroke: rgb(0, 128, 0); stroke-opacity: 1; stroke-width: 2px; opacity: 1;"/></g><g class="points"><path class="point" transform="translate(202.39,202.39)" d="M3,0A3,3 0 1,1 0,-3A3,3 0 0,1 3,0Z" style="opacity: 1; stroke-width: 0px; fill: rgb(0, 128, 0); fill-opacity: 1;"/><path class="point" transform="translate(167.8,81.95)" d="M3,0A3,3 0 1,1 0,-3A3,3 0 0,1 3,0Z" style="opacity: 1; stroke-width: 0px; fill: rgb(0, 128, 0); fill-opacity: 1;"/><path class="point" transform="translate(57.59,57.59)" d="M3,0A3,3 0 1,1 0,-3A3,3 0 0,1 3,0Z" style="opacity: 1; stroke-width: 0px; fill: rgb(0, 128, 0); fill-opacity: 1;"/><path class="point" transform="translate(73.96,175.79)" d="M3,0A3,3 0 1,1 0,-3A3,3 0 0,1 3,0Z" style="opacity: 1; stroke-width: 0px; fill: rgb(0, 128, 0); fill-opacity: 1;"/><path class="point" transform="translate(202.39,202.39)" d="M3,0A3,3 0 1,1 0,-3A3,3 0 0,1 3,0Z" style="opacity: 1; stroke-width: 0px; fill: rgb(0, 128, 0); fill-opacity: 1;"/></g><g class="text"/></g><g class="trace scatter trace113786" style="stroke-miterlimit: 2; opacity: 1;"><g class="fills" clip-path="url(#clip80ed7bpolar2-for-traces)"/><g class="errorbars"/><g class="lines"><path class="js-line" d="M207.83,207.83L168.97,80.78L58.76,58.76L70.66,179.09L207.83,207.83" clip-path="url(#clip80ed7bpolar2-for-traces)" style="vector-effect: non-scaling-stroke; fill: none; stroke: rgb(0, 0, 255); stroke-opacity: 1; stroke-width: 2px; opacity: 1;"/></g><g class="points"><path class="point" transform="translate(207.83,207.83)" d="M3,0A3,3 0 1,1 0,-3A3,3 0 0,1 3,0Z" style="opacity: 1; stroke-width: 0px; fill: rgb(0, 0, 255); fill-opacity: 1;"/><path class="point" transform="translate(168.97,80.78)" d="M3,0A3,3 0 1,1 0,-3A3,3 0 0,1 3,0Z" style="opacity: 1; stroke-width: 0px; fill: rgb(0, 0, 255); fill-opacity: 1;"/><path class="point" transform="translate(58.76,58.76)" d="M3,0A3,3 0 1,1 0,-3A3,3 0 0,1 3,0Z" style="opacity: 1; stroke-width: 0px; fill: rgb(0, 0, 255); fill-opacity: 1;"/><path class="point" transform="translate(70.66,179.09)" d="M3,0A3,3 0 1,1 0,-3A3,3 0 0,1 3,0Z" style="opacity: 1; stroke-width: 0px; fill: rgb(0, 0, 255); fill-opacity: 1;"/><path class="point" transform="translate(207.83,207.83)" d="M3,0A3,3 0 1,1 0,-3A3,3 0 0,1 3,0Z" style="opacity: 1; stroke-width: 0px; fill: rgb(0, 0, 255); fill-opacity: 1;"/></g><g class="text"/></g><g class="trace scatter tracef7af22" style="stroke-miterlimit: 2; opacity: 1;"><g class="fills" clip-path="url(#clip80ed7bpolar2-for-traces)"/><g class="errorbars"/><g class="lines"><path class="js-line" d="M210.52,210.52L166.68,83.07L54.38,54.38L57.49,192.26L210.52,210.52" clip-path="url(#clip80ed7bpolar2-for-traces)" style="vector-effect: non-scaling-stroke; fill: none; stroke: rgb(255, 0, 0); stroke-opacity: 1; stroke-width: 2px; opacity: 1;"/></g><g class="points"><path class="point" transform="translate(210.52,210.52)" d="M3,0A3,3 0 1,1 0,-3A3,3 0 0,1 3,0Z" style="opacity: 1; stroke-width: 0px; fill: rgb(255, 0, 0); fill-opacity: 1;"/><path class="point" transform="translate(166.68,83.07)" d="M3,0A3,3 0 1,1 0,-3A3,3 0 0,1 3,0Z" style="opacity: 1; stroke-width: 0px; fill: rgb(255, 0, 0); fill-opacity: 1;"/><path class="point" transform="translate(54.38,54.38)" d="M3,0A3,3 0 1,1 0,-3A3,3 0 0,1 3,0Z" style="opacity: 1; stroke-width: 0px; fill: rgb(255, 0, 0); fill-opacity: 1;"/><path class="point" transform="translate(57.49,192.26)" d="M3,0A3,3 0 1,1 0,-3A3,3 0 0,1 3,0Z" style="opacity: 1; stroke-width: 0px; fill: rgb(255, 0, 0); fill-opacity: 1;"/><path class="point" transform="translate(210.52,210.52)" d="M3,0A3,3 0 1,1 0,-3A3,3 0 0,1 3,0Z" style="opacity: 1; stroke-width: 0px; fill: rgb(255, 0, 0); fill-opacity: 1;"/></g><g class="text"/></g></g></g><g class="polarsublayer angular-line"><path d="M124.875,0A124.875,124.875 0,1,0 -124.875,-1.5292776904352574e-14A124.875,124.875 0,1,0 124.875,3.058555380870515e-14Z" transform="translate(495.125,247)" stroke-width="1" style="fill: none; stroke: rgb(255, 255, 255); stroke-opacity: 1;"/></g><g class="polarsublayer radial-line"><line x1="0" y1="0" x2="124.875" y2="0" transform="translate(495.125,247)" stroke-width="1" style="fill: none; stroke: rgb(255, 255, 255); stroke-opacity: 1;"/></g><g class="polarsublayer angular-axis"><g class="angularaxistick"><text text-anchor="start" x="4.59619407771256" y="33.23401871576773" transform="translate(583.4249593006701,335.29995930067014)" style="font-family: 'Open Sans', verdana, arial, sans-serif; font-size: 30px; fill: rgb(42, 63, 95); fill-opacity: 1; white-space: pre; opacity: 1;">Eversion</text></g><g class="angularaxistick"><text text-anchor="start" x="4.59619407771256" y="-1.4142135623730931" transform="translate(583.4249593006701,158.7000406993299)" style="font-family: 'Open Sans', verdana, arial, sans-serif; font-size: 30px; fill: rgb(42, 63, 95); fill-opacity: 1; white-space: pre; opacity: 1;">Plantarflexion</text></g><g class="angularaxistick"><text text-anchor="end" x="-4.596194077712559" y="-1.4142135623730958" transform="translate(406.82504069932986,158.70004069932986)" style="font-family: 'Open Sans', verdana, arial, sans-serif; font-size: 30px; fill: rgb(42, 63, 95); fill-opacity: 1; white-space: pre; opacity: 1;">Inversion</text></g><g class="angularaxistick"><text text-anchor="end" x="-4.59619407771256" y="33.23401871576773" transform="translate(406.82504069932986,335.29995930067014)" style="font-family: 'Open Sans', verdana, arial, sans-serif; font-size: 30px; fill: rgb(42, 63, 95); fill-opacity: 1; white-space: pre; opacity: 1;">Dorsiflexion</text></g></g><g class="polarsublayer radial-axis" transform="translate(495.125,247)"><g class="xtick"><text text-anchor="start" x="0" y="36.5" transform="translate(53.95,0) rotate(90,0,21.5)" style="font-family: 'Open Sans', verdana, arial, sans-serif; font-size: 30px; fill: rgb(42, 63, 95); fill-opacity: 1; white-space: pre; opacity: 1;">250</text></g><g class="xtick"><text text-anchor="start" x="0" y="36.5" transform="translate(107.89,0) rotate(90,0,21.5)" style="font-family: 'Open Sans', verdana, arial, sans-serif; font-size: 30px; fill: rgb(42, 63, 95); fill-opacity: 1; white-space: pre; opacity: 1;">500</text></g></g></g></g><g class="smithlayer"/><g class="ternarylayer"/><g class="geolayer"/><g class="funnelarealayer"/><g class="pielayer"/><g class="iciclelayer"/><g class="treemaplayer"/><g class="sunburstlayer"/><g class="glimages"/><defs id="topdefs-80ed7b"><g class="clips"/><clipPath id="legend80ed7b"><rect width="631" height="65" x="0" y="0"/></clipPath></defs><g class="layer-above"><g class="imagelayer"/><g class="shapelayer"/></g><g class="infolayer"><g class="legend" pointer-events="all" transform="translate(69,423.40000000000003)"><rect class="bg" shape-rendering="crispEdges" style="stroke: rgb(68, 68, 68); stroke-opacity: 1; fill: rgb(255, 255, 255); fill-opacity: 1; stroke-width: 0px;" width="631" height="65" x="0" y="0"/><g class="scrollbox" transform="" clip-path="url(#legend80ed7b)"><text class="legendtitletext" text-anchor="start" x="2" y="54.6" style="font-family: 'Open Sans', verdana, arial, sans-serif; font-size: 42px; fill: rgb(42, 63, 95); fill-opacity: 1; white-space: pre;">Speed (m/s)</text><g class="groups" transform=""><g class="traces" transform="translate(275.8125,29.25)" style="opacity: 1;"><text class="legendtext" text-anchor="start" x="40" y="13.65" style="font-family: 'Open Sans', verdana, arial, sans-serif; font-size: 35px; fill: rgb(42, 63, 95); fill-opacity: 1; white-space: pre;">slow</text><g class="layers" style="opacity: 1;"><g class="legendfill"/><g class="legendlines"><path class="js-line" d="M5,0h30" style="fill: none; stroke: rgb(0, 128, 0); stroke-opacity: 1; stroke-width: 2px;"/></g><g class="legendsymbols"><g class="legendpoints"><path class="scatterpts" transform="translate(20,0)" d="M3,0A3,3 0 1,1 0,-3A3,3 0 0,1 3,0Z" style="opacity: 1; stroke-width: 0px; fill: rgb(0, 128, 0); fill-opacity: 1;"/></g></g></g><rect class="legendtoggle" x="0" y="-24.25" width="120.234375" height="48.5" style="fill: rgb(0, 0, 0); fill-opacity: 0;"/></g></g><g class="groups" transform="translate(122.734375,0)"><g class="traces" transform="translate(275.8125,29.25)" style="opacity: 1;"><text class="legendtext" text-anchor="start" x="40" y="13.65" style="font-family: 'Open Sans', verdana, arial, sans-serif; font-size: 35px; fill: rgb(42, 63, 95); fill-opacity: 1; white-space: pre;">med</text><g class="layers" style="opacity: 1;"><g class="legendfill"/><g class="legendlines"><path class="js-line" d="M5,0h30" style="fill: none; stroke: rgb(0, 0, 255); stroke-opacity: 1; stroke-width: 2px;"/></g><g class="legendsymbols"><g class="legendpoints"><path class="scatterpts" transform="translate(20,0)" d="M3,0A3,3 0 1,1 0,-3A3,3 0 0,1 3,0Z" style="opacity: 1; stroke-width: 0px; fill: rgb(0, 0, 255); fill-opacity: 1;"/></g></g></g><rect class="legendtoggle" x="0" y="-24.25" width="119.203125" height="48.5" style="fill: rgb(0, 0, 0); fill-opacity: 0;"/></g></g><g class="groups" transform="translate(244.4375,0)"><g class="traces" transform="translate(275.8125,29.25)" style="opacity: 1;"><text class="legendtext" text-anchor="start" x="40" y="13.65" style="font-family: 'Open Sans', verdana, arial, sans-serif; font-size: 35px; fill: rgb(42, 63, 95); fill-opacity: 1; white-space: pre;">fast</text><g class="layers" style="opacity: 1;"><g class="legendfill"/><g class="legendlines"><path class="js-line" d="M5,0h30" style="fill: none; stroke: rgb(255, 0, 0); stroke-opacity: 1; stroke-width: 2px;"/></g><g class="legendsymbols"><g class="legendpoints"><path class="scatterpts" transform="translate(20,0)" d="M3,0A3,3 0 1,1 0,-3A3,3 0 0,1 3,0Z" style="opacity: 1; stroke-width: 0px; fill: rgb(255, 0, 0); fill-opacity: 1;"/></g></g></g><rect class="legendtoggle" x="0" y="-24.25" width="108.0625" height="48.5" style="fill: rgb(0, 0, 0); fill-opacity: 0;"/></g></g></g><rect class="scrollbar" rx="20" ry="3" width="0" height="0" style="fill: rgb(128, 139, 164); fill-opacity: 1;" x="0" y="0"/></g><g class="g-gtitle"><text class="gtitle" x="35" y="50" text-anchor="start" dy="0em" style="font-family: 'Open Sans', verdana, arial, sans-serif; font-size: 42px; fill: rgb(42, 63, 95); opacity: 1; font-weight: normal; white-space: pre;">Polar plots of Average Peak Moment for a given speed</text></g><g class="g-polartitle"/><g class="g-polar2title"/><g class="annotation" data-index="0" style="opacity: 1;"><g class="annotation-text-g" transform="rotate(0,321.8,232.29999999999998)"><g class="cursor-pointer" transform="translate(158,212)"><rect class="bg" x="0.5" y="0.5" width="326" height="39" style="stroke-width: 1px; stroke: rgb(0, 0, 0); stroke-opacity: 0; fill: rgb(0, 0, 0); fill-opacity: 0;"/><text class="annotation-text" text-anchor="middle" x="163.46875" y="32" style="font-family: 'Open Sans', verdana, arial, sans-serif; font-size: 30px; fill: rgb(42, 63, 95); fill-opacity: 1; white-space: pre;">Plantarflexor Moment</text></g></g></g><g class="annotation" data-index="1" style="opacity: 1;"><g class="annotation-text-g" transform="rotate(0,401.5999999999999,232.29999999999998)"><g class="cursor-pointer" transform="translate(270,212)"><rect class="bg" x="0.5" y="0.5" width="263" height="39" style="stroke-width: 1px; stroke: rgb(0, 0, 0); stroke-opacity: 0; fill: rgb(0, 0, 0); fill-opacity: 0;"/><text class="annotation-text" text-anchor="middle" x="132.046875" y="32" style="font-family: 'Open Sans', verdana, arial, sans-serif; font-size: 30px; fill: rgb(42, 63, 95); fill-opacity: 1; white-space: pre;">Eversion Moment</text></g></g></g></g></svg>